<svg height="512pt" viewBox="0 -19 512.00033 512" width="512pt" xmlns="http://www.w3.org/2000/svg"><path d="m506.28125 153.582031-35.753906-25.171875-.113282-.070312s-.003906-.003906-.003906-.003906l-.585937.84375.003906.003906c3.324219 2.292968 5.335937 6.0625 5.386719 10.085937.082031 6.859375-5.425782 12.507813-12.285156 12.59375l-5.777344.070313 33.625 23.671875c6.082031 4.285156 14.476562 2.835937 18.761718-3.257813 4.289063-6.089844 2.828126-14.484375-3.257812-18.765625zm0 0" fill="#fccd7f"/><path d="m498.328125 163.007812c-10.761719-7.574218-3.328125-13.171874-3.328125-13.171874.992188-.648438 1.871094-1.445313 2.640625-2.339844l-27.113281-19.085938-.113282-.070312s-.003906-.003906-.003906-.003906l-.585937.84375.003906.003906c3.324219 2.292968 5.335937 6.0625 5.386719 10.085937.082031 6.859375-5.425782 12.507813-12.285156 12.59375l-5.777344.070313 33.625 23.671875c6.082031 4.285156 14.476562 2.835937 18.761718-3.257813.230469-.328125.4375-.664062.632813-1zm0 0" fill="#eab765"/><path d="m54.851562 151.933594-5.78125-.070313c-6.855468-.085937-12.367187-5.734375-12.285156-12.59375.050782-4.015625 2.058594-7.785156 5.375-10.078125l.019532-.011718-.589844-.84375c-.007813.007812-.019532.015624-.027344.019531l-35.84375 25.226562c-6.085938 4.285157-7.546875 12.675781-3.257812 18.761719 4.289062 6.097656 12.6875 7.542969 18.761718 3.261719zm0 0" fill="#fccd7f"/><path d="m35.699219 153.582031 6.035156-4.25c-3.039063-2.304687-5-5.960937-4.949219-10.0625.050782-4.015625 2.058594-7.785156 5.375-10.078125l.015625-.011718-.585937-.84375c-.011719.007812-.019532.015624-.027344.019531h-.003906l-35.839844 25.226562c-6.085938 4.285157-7.546875 12.675781-3.257812 18.761719 4.289062 6.097656 12.6875 7.542969 18.761718 3.261719l9.484375-6.675781c-1.882812-5.515626-.015625-11.820313 4.992188-15.347657zm0 0" fill="#eab765"/><path d="m382.058594 127.980469c4.535156 0 8.714844 2.464843 10.902344 6.433593 3.3125 6.007813 1.117187 13.589844-4.886719 16.902344l-4.640625 2.554688 79.507812-.980469c7.425782-.09375 13.390625-6.207031 13.300782-13.632813-.089844-7.335937-6.128907-13.300781-13.464844-13.300781l-80.742188.996094.007813 1.027344zm0 0" fill="#9c5e5e"/><path d="m388.074219 151.316406-4.640625 2.554688 32.054687-.394532c10.589844-6.386718 9.449219-22.144531-1.984375-26.914062l-31.46875.390625.007813 1.027344h.015625c4.535156 0 8.714844 2.464843 10.902344 6.433593 3.3125 6.007813 1.117187 13.589844-4.886719 16.902344zm0 0" fill="#855151"/><path d="m49.058594 152.890625 79.507812.980469-4.640625-2.554688c-6.003906-3.3125-8.199219-10.894531-4.886719-16.902344 2.1875-3.96875 6.367188-6.433593 10.90625-6.433593h.011719l.007813-1.027344-80.566406-.996094-.175782-.003906c-7.332031 0-13.371094 5.96875-13.464844 13.304687-.089843 7.425782 5.875 13.539063 13.300782 13.632813zm0 0" fill="#9c5e5e"/><path d="m65.738281 139.210938c.074219-5.738282 3.542969-10.683594 8.464844-12.949219l-24.804687-.304688-.175782-.003906c-7.332031 0-13.371094 5.96875-13.464844 13.304687-.089843 7.425782 5.875 13.539063 13.300782 13.632813l27.011718.332031c-6.03125-1.796875-10.410156-7.417968-10.332031-14.011718zm0 0" fill="#855151"/><path d="m393.863281 133.917969c-3.585937-6.503907-11.796875-8.878907-18.296875-5.292969l-62.648437 34.535156-6.609375 9.78125-.152344-.398437-.960938.363281c2.664063 7.042969 4.0625 14.480469 4.160157 22.113281l.011719.855469 79.203124-43.660156c6.503907-3.585938 8.875-11.792969 5.292969-18.296875zm0 0" fill="#fccd7f"/><path d="m349.296875 160.152344 45.195313-24.917969c-.183594-.445313-.390626-.882813-.628907-1.316406-3.589843-6.503907-11.796875-8.878907-18.300781-5.292969l-62.644531 34.535156-6.609375 9.78125-.152344-.398437-.960938.363281c2.664063 7.042969 4.0625 14.480469 4.160157 22.113281l.011719.855469 28.375-15.640625c-.109376-13.742187 11.554687-20.082031 11.554687-20.082031zm0 0" fill="#eab765"/><path d="m136.433594 128.625c-6.5-3.582031-14.710938-1.210938-18.296875 5.292969-3.582031 6.503906-1.210938 14.714843 5.292969 18.300781l79.203124 43.660156.011719-.859375c.089844-7.171875 1.324219-14.167969 3.660157-20.796875l.085937-.246094-7.308594-10.8125zm0 0" fill="#fccd7f"/><path d="m153.410156 152.214844c-6.203125-3.421875-8.636718-11.046875-5.730468-17.390625l-11.246094-6.199219c-6.5-3.582031-14.710938-1.210938-18.296875 5.292969-3.582031 6.503906-1.210938 14.714843 5.292969 18.300781l79.203124 43.660156.011719-.859375c.0625-4.988281.691407-9.890625 1.847657-14.644531zm0 0" fill="#eab765"/><path d="m479.15625 251.316406-.941406.410156c1.457031 2.921876 1.621094 7.59375-.703125 11.457032-3.628907 6.035156-11.3125 7.71875-17.074219 4.246094l-4.953125-2.976563 16.144531 37.820313c2.890625 6.773437 10.761719 10.050781 17.675782 7.097656 6.84375-2.921875 10.023437-10.828125 7.097656-17.671875-.113282-.265625-17.121094-40.125-17.246094-40.382813zm0 0" fill="#fccd7f"/><path d="m488.292969 302.273438-14.90625-34.914063c-3.875 2.390625-8.886719 2.515625-12.949219.070313l-4.949219-2.976563 16.140625 37.820313c2.894532 6.773437 10.761719 10.050781 17.675782 7.097656 1.117187-.476563 2.125-1.09375 3.035156-1.8125-1.722656-1.355469-3.132813-3.144532-4.046875-5.285156zm0 0" fill="#eab765"/><path d="m435.730469 408.183594c-.816407 3.96875-3.503907 7.296875-7.199219 8.910156-3.042969 1.328125-6.421875 1.394531-9.515625.183594-3.09375-1.210938-5.53125-3.554688-6.863281-6.601563l-2.324219-5.316406-11.53125 51.921875c-1.605469 7.25 2.980469 14.460938 10.230469 16.070312 7.25 1.605469 14.457031-2.980468 16.070312-10.230468l12.101563-54.507813c.011719-.050781.019531-.097656.039062-.222656zm0 0" fill="#fccd7f"/><path d="m417.679688 457.28125 8.769531-39.496094c-2.457031.59375-5.03125.433594-7.433594-.507812-3.09375-1.210938-5.53125-3.554688-6.863281-6.601563l-2.324219-5.316406-11.53125 51.925781c-1.605469 7.246094 2.980469 14.457032 10.230469 16.066406 4.738281 1.050782 9.449218-.558593 12.601562-3.8125-3.015625-3.148437-4.464844-7.695312-3.449218-12.257812zm0 0" fill="#eab765"/><path d="m34.488281 263.183594c-1.976562-3.292969-2.414062-7.421875-.703125-11.457032l-.9375-.414062c-.011718.019531-.019531.035156-.027344.054688l-17.222656 40.332031c-1.414062 3.304687-1.453125 6.96875-.113281 10.304687 4.445313 11.066406 20.171875 11.316406 24.886719.269532l16.144531-37.820313-4.953125 2.976563c-5.777344 3.476562-13.453125 1.773437-17.074219-4.246094zm0 0" fill="#fccd7f"/><path d="m36.734375 302.003906c-1.339844-3.335937-1.300781-6.996094.113281-10.304687l9.636719-22.570313c-4.617187.5-9.371094-1.582031-11.996094-5.945312-1.976562-3.292969-2.414062-7.421875-.703125-11.457032l-.9375-.414062c-.011718.019531-.019531.035156-.027344.054688l-17.222656 40.332031c-1.414062 3.304687-1.453125 6.96875-.113281 10.304687 3.992187 9.941406 17.085937 11.148438 23.125 3.28125-.742187-.960937-1.378906-2.050781-1.875-3.28125zm0 0" fill="#eab765"/><path d="m102.171875 405.359375-2.324219 5.316406c-1.332031 3.042969-3.769531 5.390625-6.863281 6.601563-3.09375 1.210937-6.472656 1.144531-9.515625-.183594-3.691406-1.613281-6.382812-4.941406-7.199219-8.90625v-.003906l-1.007812.203125c.003906.027343.011719.050781.015625.074219h-.003906c.007812.050781.015624.097656.023437.152343l12.105469 54.507813c1.613281 7.253906 8.828125 11.832031 16.070312 10.226562 7.25-1.609375 11.835938-8.816406 10.226563-16.066406zm0 0" fill="#fccd7f"/><path d="m108.074219 463.121094-10.804688-48.660156c-1.203125 1.210937-2.648437 2.175781-4.285156 2.816406-3.09375 1.210937-6.472656 1.144531-9.515625-.183594-3.695312-1.613281-6.382812-4.941406-7.199219-8.90625v-.003906l-.503906.101562-.503906.105469c.003906.023437.007812.046875.015625.070313h-.003906c.007812.050781.011718.097656.023437.152343l12.105469 54.507813c1.613281 7.253906 8.828125 11.832031 16.070312 10.226562 3.019532-.667968 5.570313-2.320312 7.410156-4.535156-1.335937-1.597656-2.324218-3.519531-2.808593-5.691406zm0 0" fill="#eab765"/><path d="m473.792969 245.230469-69.0625-41.542969-.535157.878906c3.875 2.382813 6.140626 6.683594 5.914063 11.222656-.34375 6.835938-6.171875 12.148438-13.046875 11.800782l-5.292969-.265625 68.136719 40.988281c6.246094 3.761719 14.5625 1.925781 18.484375-4.597656 3.828125-6.363282 1.765625-14.65625-4.597656-18.484375zm0 0" fill="#9c5e5e"/><path d="m433.5625 233.800781c-6.695312-4.027343-1.402344-6.683593-1.402344-6.683593 2.199219-.636719 4.160156-1.867188 5.683594-3.511719l-33.113281-19.917969-.535157.878906c3.875 2.382813 6.140626 6.683594 5.914063 11.222656-.34375 6.835938-6.171875 12.148438-13.046875 11.800782l-5.292969-.265625 68.136719 40.988281c6.246094 3.757812 14.5625 1.925781 18.484375-4.597656.445313-.742188.800781-1.507813 1.089844-2.292969zm0 0" fill="#855151"/><path d="m394.601562 305.792969-.945312.410156c1.78125 4.1875 1.144531 9.003906-1.667969 12.574219-4.242187 5.390625-12.078125 6.324218-17.46875 2.082031l-4.164062-3.28125 40.855469 93.507813c1.441406 3.296874 4.078124 5.835937 7.429687 7.148437 1.59375.625 3.253906.933594 4.917969.933594 1.828125 0 3.660156-.378907 5.386718-1.132813 3.296876-1.441406 5.835938-4.078125 7.148438-7.425781 1.3125-3.351563 1.238281-7.011719-.199219-10.308594zm0 0" fill="#9c5e5e"/><path d="m428.347656 411.085938-39.1875-89.6875c-4.363281 2.933593-10.296875 2.882812-14.640625-.539063l-4.164062-3.28125 40.855469 93.507813c1.441406 3.296874 4.078124 5.835937 7.429687 7.148437 1.59375.625 3.253906.933594 4.917969.933594 1.828125 0 3.660156-.378907 5.386718-1.132813 1.160157-.507812 2.222657-1.171875 3.175782-1.953125-1.617188-1.332031-2.914063-3.023437-3.773438-4.996093zm0 0" fill="#855151"/><path d="m114.9375 227.589844c-6.871094.347656-12.707031-4.964844-13.046875-11.800782-.230469-4.539062 2.039063-8.839843 5.914063-11.222656l-.535157-.878906-69.0625 41.542969c-6.363281 3.828125-8.425781 12.121093-4.597656 18.484375 3.925781 6.53125 12.242187 8.355468 18.480469 4.597656l68.136718-40.988281zm0 0" fill="#9c5e5e"/><path d="m54.859375 263.714844c-3.828125-6.367188-1.765625-14.65625 4.597656-18.484375l43.125-25.941407c-.386719-1.105468-.632812-2.277343-.691406-3.5-.226563-4.539062 2.039063-8.839843 5.914063-11.222656l-.535157-.878906-69.0625 41.542969c-6.363281 3.828125-8.425781 12.117187-4.597656 18.484375 3.925781 6.527344 12.242187 8.355468 18.484375 4.597656l4.265625-2.570312c-.546875-.617188-1.054687-1.289063-1.5-2.027344zm0 0" fill="#855151"/><path d="m120.011719 318.78125c-2.8125-3.570312-3.449219-8.390625-1.667969-12.578125l-.945312-.410156-41.289063 94.507812c-1.441406 3.296875-1.511719 6.957031-.199219 10.308594 1.3125 3.347656 3.851563 5.984375 7.148438 7.425781 1.726562.753906 3.554687 1.132813 5.386718 1.132813 1.660157 0 3.324219-.308594 4.914063-.933594 3.351563-1.3125 5.992187-3.851563 7.433594-7.148437l40.855469-93.507813-4.164063 3.28125c-5.390625 4.242187-13.230469 3.308594-17.472656-2.078125zm0 0" fill="#9c5e5e"/><path d="m96.578125 410.609375c-1.3125-3.351563-1.242187-7.011719.199219-10.308594l33.558594-76.804687c-3.863282.164062-7.753907-1.453125-10.324219-4.714844-2.8125-3.570312-3.449219-8.390625-1.667969-12.578125l-.945312-.410156-41.289063 94.507812c-2.984375 6.820313.125 14.753907 6.945313 17.734375 5.660156 2.472656 12.023437.746094 15.734374-3.710937-.917968-1.101563-1.671874-2.34375-2.210937-3.714844zm0 0" fill="#855151"/><path d="m306.320312 57.445312c3.210938-6.695312.375-14.753906-6.320312-17.964843-3.242188-1.558594-6.898438-1.757813-10.292969-.566407-3.394531 1.195313-6.121093 3.640626-7.675781 6.882813l-8.976562 18.71875c-5.761719 12.011719-4.617188 26.109375 2.988281 36.789063 1.570312 2.207031 2.851562 4.492187 3.808593 6.792968l.949219-.394531c-2.636719-6.332031.371094-13.628906 6.699219-16.265625 6.324219-2.632812 13.617188.367188 16.261719 6.6875l.949219-.394531v-.003907s0 0-.003907-.003906c-1.730469-4.152344-3.992187-8.207031-6.722656-12.039062-1.917969-2.695313-2.164063-6.34375-.640625-9.519532zm0 0" fill="#9c5e5e"/><path d="m291.511719 64.515625 8.976562-18.71875c.730469-1.519531 1.726563-2.855469 2.917969-3.980469-.984375-.925781-2.121094-1.722656-3.40625-2.339844-3.242188-1.554687-6.898438-1.753906-10.292969-.5625-3.394531 1.195313-6.117187 3.640626-7.671875 6.882813l-8.976562 18.71875c-5.765625 12.011719-4.617188 26.109375 2.984375 36.789063 1.570312 2.203124 2.851562 4.488281 3.808593 6.789062l.949219-.394531c-2.636719-6.328125.371094-13.625 6.703125-16.261719.621094-.261719 1.257813-.449219 1.894532-.601562-2.554688-8.542969-1.90625-17.9375 2.113281-26.320313zm0 0" fill="#855151"/><path d="m229.96875 45.796875c-1.554688-3.242187-4.28125-5.6875-7.675781-6.882813-3.394531-1.191406-7.050781-.992187-10.292969.566407-6.695312 3.210937-9.53125 11.269531-6.316406 17.964843l8.976562 18.71875c1.523438 3.175782 1.277344 6.824219-.640625 9.519532-2.734375 3.832031-4.996093 7.886718-6.726562 12.039062 0 .003906 0 .003906-.003907.003906v.003907l.949219.394531h.003907c2.640624-6.320312 9.9375-9.316406 16.257812-6.6875 6.332031 2.636719 9.335938 9.933594 6.703125 16.265625l.949219.394531c.957031-2.300781 2.238281-4.585937 3.808594-6.792968 7.601562-10.679688 8.746093-24.773438 2.984374-36.789063zm0 0" fill="#9c5e5e"/><path d="m228.648438 94.269531c1.113281-2.226562 2.820312-5.308593 5.15625-8.585937 1.917968-2.695313 2.160156-6.34375.640624-9.519532l-8.976562-18.71875c-2.457031-5.113281-1.371094-11.019531 2.261719-14.957031-1.476563-1.601562-3.324219-2.828125-5.4375-3.574219-3.394531-1.191406-7.050781-.992187-10.292969.566407-6.695312 3.210937-9.53125 11.269531-6.316406 17.964843l8.976562 18.71875c1.523438 3.175782 1.277344 6.824219-.640625 9.519532-2.734375 3.832031-4.996093 7.886718-6.726562 12.039062 0 .003906 0 .003906-.003907.003906v.003907l.949219.394531h.003907c2.640624-6.320312 9.9375-9.316406 16.257812-6.6875 1.613281.671875 3.003906 1.648438 4.148438 2.832031zm0 0" fill="#855151"/><path d="m432.285156.273438c-7.3125-1.480469-14.394531 3.234374-15.871094 10.527343l-6.15625 30.394531 6.082032-3.480468c4.367187-2.5 9.585937-2.171875 13.613281.855468 4.046875 3.039063 5.828125 7.964844 4.644531 12.859376l1 .242187.042969-.164063c.027344-.105468.054687-.210937.074219-.320312l7.097656-35.039062c1.472656-7.28125-3.246094-14.402344-10.527344-15.875zm0 0" fill="#fccd7f"/><path d="m434.746094 10.800781c.582031-2.867187 2.039062-5.328125 4.023437-7.175781-1.753906-1.640625-3.960937-2.839844-6.484375-3.351562-7.3125-1.480469-14.398437 3.234374-15.875 10.527343l-6.15625 30.394531 6.082032-3.480468c4.113281-2.351563 8.972656-2.199219 12.890624.347656zm0 0" fill="#eab765"/><path d="m79.714844.273438c-7.277344 1.472656-12 8.59375-10.527344 15.871093l7.09375 35.042969c.023438.105469.050781.210938.078125.316406l.042969.167969 1-.242187c-1.183594-4.894532.597656-9.820313 4.644531-12.859376 4.027344-3.027343 9.242187-3.355468 13.613281-.855468l6.082032 3.480468-6.15625-30.394531c-1.476563-7.300781-8.574219-12.007812-15.871094-10.527343zm0 0" fill="#fccd7f"/><path d="m90.890625 16.144531c-.785156-3.859375.191406-7.671875 2.355469-10.625-3.007813-4.105469-8.210938-6.328125-13.53125-5.246093-7.277344 1.472656-12 8.59375-10.527344 15.871093l7.09375 35.042969c.023438.105469.050781.210938.078125.316406l.042969.167969 1-.242187c-1.183594-4.894532.597656-9.820313 4.644531-12.859376 3.890625-2.925781 8.886719-3.320312 13.160156-1.09375zm0 0" fill="#eab765"/><path d="m434.207031 41.824219c-3.695312-6.460938-11.914062-8.699219-18.378906-5l-76.316406 44.847656c-.054688.03125-.109375.066406-.246094.15625v.003906-.003906c4.136719-2.484375 9.386719-2.351563 13.371094.34375 2.753906 1.859375 4.617187 4.683594 5.25 7.945313.628906 3.261718-.046875 6.574218-1.910157 9.328124l-2.921874 4.328126 76.152343-43.570313c6.445313-3.6875 8.6875-11.933594 5-18.378906zm0 0" fill="#9c5e5e"/><path d="m353.054688 103.773438 33.050781-18.910157c-.449219-.902343-1-1.738281-1.648438-2.484375-3.148437-3.628906-2.414062-9.167968 1.757813-11.554687l48.597656-27.804688c-.183594-.402343-.382812-.800781-.605469-1.195312-3.699219-6.460938-11.917969-8.699219-18.378906-5l-76.316406 44.847656c-.058594.03125-.109375.066406-.246094.15625 4.136719-2.484375 9.382813-2.351563 13.371094.34375 2.753906 1.859375 4.617187 4.683594 5.246093 7.945313.632813 3.261718-.046874 6.574218-1.90625 9.328124zm0 0" fill="#855151"/><path d="m173.179688 80.890625c-.054688-.035156-.105469-.070313-.160157-.101563l-76.847656-43.964843c-6.460937-3.699219-14.679687-1.460938-18.378906 5-3.6875 6.445312-1.441407 14.691406 5 18.378906l76.152343 43.570313-2.921874-4.328126c-1.859376-2.753906-2.539063-6.066406-1.90625-9.328124.628906-3.261719 2.492187-6.082032 5.246093-7.945313 3.984375-2.691406 9.234375-2.828125 13.371094-.339844h.003906l.527344-.882812c-.027344-.015625-.058594-.035157-.085937-.050781zm0 0" fill="#9c5e5e"/><path d="m154.117188 90.117188c.085937-.453126.203124-.894532.335937-1.328126l-49.957031-28.585937c-6.445313-3.6875-8.6875-11.933594-5-18.378906.457031-.800781.984375-1.535157 1.570312-2.203125l-4.894531-2.796875c-6.460937-3.699219-14.679687-1.460938-18.378906 5-3.6875 6.445312-1.445313 14.691406 5 18.378906l76.152343 43.570313-2.921874-4.328126c-1.863282-2.753906-2.539063-6.066406-1.90625-9.328124zm0 0" fill="#855151"/><path d="m352.921875 81.746094c-5.925781-4.007813-13.976563-2.445313-17.984375 3.480468l-26.921875 39.839844c-1.15625 9.058594-4.84375 19.144532-12.730469 29.847656-.363281-.425781-.746094-.832031-1.117187-1.246093 5.164062 5.765625 9.292969 12.675781 12.011719 20.382812l50.222656-74.316406c4.007812-5.929687 2.449218-13.980469-3.480469-17.988281zm0 0" fill="#fccd7f"/><path d="m352.921875 81.746094c-5.925781-4.007813-13.976563-2.445313-17.984375 3.480468l-26.921875 39.839844c-1.15625 9.058594-4.84375 19.144532-12.730469 29.847656-.363281-.425781-.746094-.832031-1.117187-1.246093 5.164062 5.765625 9.292969 12.675781 12.011719 20.382812l50.222656-74.316406c4.007812-5.929687 2.449218-13.980469-3.480469-17.988281zm0 0" fill="#fccd7f"/><path d="m317.214844 146.148438c3.367187-6.121094 5.421875-11.988282 6.511718-17.511719.503907-2.554688 1.527344-4.972657 2.988282-7.132813l24.515625-36.277344c.738281-1.089843 1.609375-2.027343 2.582031-2.8125-.289062-.230468-.578125-.457031-.890625-.667968-5.925781-4.007813-13.976563-2.449219-17.984375 3.480468l-26.921875 39.835938c-1.15625 9.0625-4.84375 19.148438-12.730469 29.851562-.363281-.429687-.746094-.832031-1.117187-1.25 5.164062 5.765626 9.292969 12.675782 12.011719 20.386719l9.296874-13.761719c-1.199218-4.714843-.660156-9.777343 1.738282-14.140624zm0 0" fill="#eab765"/><path d="m204.492188 124.996094-.015626-.121094-26.988281-39.933594c-4.167969-6.171875-12.535156-7.789062-18.699219-3.617187-6.167968 4.164062-7.789062 12.53125-3.617187 18.695312l50.792969 75.164063.339844-.960938c2.488281-7.054687 6.121093-13.4375 10.804687-18.976562l.261719-.308594-.242188-.328125c-7.109375-9.648437-11.359375-19.609375-12.636718-29.613281zm0 0" fill="#fccd7f"/><path d="m176.871094 100.019531c-3.273438-4.84375-2.964844-11.039062.304687-15.496093-4.257812-5.8125-12.363281-7.277344-18.386719-3.203126-6.167968 4.167969-7.789062 12.53125-3.617187 18.699219l50.796875 75.164063.335938-.964844c2.199218-6.230469 5.296874-11.941406 9.21875-17.007812zm0 0" fill="#eab765"/><path d="m256 462.992188c-4.257812 0-7.710938-3.453126-7.710938-7.710938v-36.628906c0-4.261719 3.453126-7.710938 7.710938-7.710938s7.710938 3.449219 7.710938 7.710938v36.628906c0 4.257812-3.453126 7.710938-7.710938 7.710938zm0 0" fill="#9c5e5e"/><path d="m304.71875 97.742188c-2.855469-6.851563-10.757812-10.105469-17.613281-7.253907-3.320313 1.386719-5.90625 3.976563-7.273438 7.304688-1.371093 3.328125-1.363281 6.988281.019531 10.308593 4.160157 9.988282 2.238282 20.1875-5.875 31.175782l-.394531.535156.613281.246094c7.804688 3.148437 14.960938 8.402344 20.699219 15.191406l.417969.496094.386719-.527344c17.40625-23.617188 14.511719-44.292969 9.019531-57.476562zm0 0" fill="#fccd7f"/><path d="m301.964844 145.042969c-4.785156-3.203125-6.667969-9.324219-4.292969-14.570313 3.175781-7.011718 3.875-14.273437.636719-22.378906-.960938-2.300781-2.242188-4.582031-3.8125-6.789062-2.5-3.515626-4.289063-7.402344-5.375-11.460938-.675782.164062-1.351563.367188-2.015625.644531-3.480469 1.449219-6.152344 4.230469-7.464844 7.789063-1.214844 3.292968-.945313 6.933594.359375 10.1875 3.964844 9.871094 1.988281 19.957031-6.027344 30.8125l-.394531.53125.617187.25c7.804688 3.148437 14.960938 8.398437 20.699219 15.1875l.417969.496094.386719-.523438c2.535156-3.441406 4.625-6.816406 6.355469-10.117188-.027344-.015624-.058594-.035156-.089844-.058593zm0 0" fill="#eab765"/><path d="m232.148438 108.101562c2.855468-6.855468-.398438-14.757812-7.253907-17.613281-6.859375-2.851562-14.753906.402344-17.609375 7.253907-5.496094 13.1875-8.386718 33.859374 9.015625 57.476562l.386719.527344.417969-.496094c5.734375-6.789062 12.890625-12.039062 20.699219-15.191406l.613281-.246094-.394531-.535156c-8.113282-10.992188-10.035157-21.1875-5.875-31.175782zm0 0" fill="#fccd7f"/><path d="m227.074219 97.726562s.679687-1.757812 2.0625-4.414062c-1.1875-1.171875-2.609375-2.144531-4.242188-2.824219-6.859375-2.855469-14.753906.402344-17.609375 7.253907-5.496094 13.183593-8.386718 33.859374 9.015625 57.476562l.386719.527344.417969-.5c3.597656-4.257813 7.761719-7.910156 12.289062-10.820313-8.335937-16.421875-8.378906-32.683593-2.320312-46.699219zm0 0" fill="#eab765"/><path d="m398.359375 201.714844-89.011719-4.464844-.015625.527344c-.25 8.964844-2.253906 17.523437-5.953125 25.433594l-.324218.695312 93.957031 4.710938c.230469.011718.457031.015624.683593.015624 7.179688 0 13.082032-5.617187 13.441407-12.792968.375-7.417969-5.359375-13.753906-12.777344-14.125zm0 0" fill="#fccd7f"/><path d="m337.054688 198.640625-27.707032-1.390625-.015625.523438c-.25 8.96875-2.253906 17.523437-5.953125 25.4375l-.324218.691406 28.558593 1.433594c3.289063-8.351563 5.121094-17.320313 5.441407-26.695313zm0 0" fill="#eab765"/><path d="m202.667969 197.777344-.015625-.527344-89.011719 4.464844c-3.59375.179687-6.902344 1.75-9.316406 4.417968-2.410157 2.667969-3.640625 6.113282-3.460938 9.707032.359375 7.175781 6.261719 12.792968 13.441407 12.792968.226562 0 .453124-.003906.683593-.015624l93.957031-4.710938-.324218-.695312c-3.699219-7.910157-5.703125-16.46875-5.953125-25.433594zm0 0" fill="#fccd7f"/><path d="m122.113281 216.289062c-.207031-4.148437 1.214844-8.132812 4-11.214843 1.828125-2.019531 4.101563-3.484375 6.617188-4.316407l-19.089844.957032c-3.59375.179687-6.902344 1.75-9.316406 4.417968-2.410157 2.667969-3.640625 6.113282-3.460938 9.707032.359375 7.175781 6.261719 12.792968 13.441407 12.792968.226562 0 .453124-.003906.683593-.015624l13.324219-.667969c-3.570312-2.683594-5.957031-6.867188-6.199219-11.660157zm0 0" fill="#eab765"/><path d="m390.542969 300.503906-90.433594-71.207031-.300781.484375c-3.390625 5.40625-7.53125 10.117188-12.3125 14.011719l-.035156-.023438-.289063.289063.351563.390625-.253907.410156c11.429688 7.050781 21.652344 18.058594 29.5625 31.839844l.046875.085937 57.003906 44.882813c5.839844 4.59375 14.324219 3.578125 18.914063-2.253907 4.605469-5.847656 3.597656-14.304687-2.253906-18.910156zm0 0" fill="#fccd7f"/><path d="m347.78125 279.769531s-9.117188-6.898437-21.796875-16.667969c-12.679687-9.765624-7.078125-19.007812-7.078125-19.007812l-18.796875-14.796875-.300781.484375c-3.390625 5.40625-7.53125 10.117188-12.3125 14.011719l-.035156-.023438-.289063.289063.351563.390625-.253907.410156c11.429688 7.050781 21.652344 18.058594 29.5625 31.839844l.046875.085937 57.003906 44.882813c5.839844 4.59375 14.324219 3.578125 18.914063-2.253907.707031-.894531 1.265625-1.859374 1.710937-2.855468zm0 0" fill="#eab765"/><path d="m212.191406 229.78125-.300781-.484375-90.4375 71.207031c-5.847656 4.605469-6.851563 13.0625-2.25 18.910156 4.59375 5.835938 13.078125 6.84375 18.914063 2.253907l56.921874-44.820313.128907-.148437c7.90625-13.777344 18.128906-24.785157 29.5625-31.839844l.621093-.382813-.570312-.457031c-4.898438-3.9375-9.132812-8.726562-12.589844-14.238281zm0 0" fill="#fccd7f"/><path d="m139.875 319.414062c-4.605469-5.847656-3.597656-14.304687 2.25-18.910156l77.597656-61.101562c-2.804687-2.890625-5.328125-6.109375-7.527344-9.621094l-.304687-.484375-90.433594 71.207031c-5.851562 4.605469-6.855469 13.0625-2.253906 18.910156 4.597656 5.835938 13.078125 6.84375 18.914063 2.253907l2.207031-1.738281c-.152344-.171876-.308594-.332032-.449219-.515626zm0 0" fill="#eab765"/><path d="m287.707031 243.398438c-8.917969 7.164062-19.863281 11.398437-31.707031 11.398437s-22.792969-4.234375-31.707031-11.398437c-27.957031 17.242187-47.5 56.566406-47.5 102.34375 0 61.679687 35.464843 90.984374 79.207031 90.984374s79.203125-29.304687 79.203125-90.984374c.003906-45.777344-19.539063-85.101563-47.496094-102.34375zm0 0" fill="#855151"/><path d="m207.808594 345.742188c0-38.640626 13.925781-72.683594 35.082031-92.730469-6.796875-1.882813-13.085937-5.1875-18.597656-9.613281-27.957031 17.242187-47.5 56.566406-47.5 102.34375 0 61.679687 35.464843 90.984374 79.207031 90.984374 5.308594 0 10.492188-.441406 15.507812-1.308593-36.316406-6.289063-63.699218-35.484375-63.699218-89.675781zm0 0" fill="#704444"/><path d="m256 136.003906c6.300781 0 12.34375 1.210938 17.964844 3.417969v-12.511719c0-9.878906-8.085938-17.964844-17.964844-17.964844s-17.964844 8.085938-17.964844 17.964844v12.511719c5.621094-2.207031 11.664063-3.417969 17.964844-3.417969zm0 0" fill="#9c5e5e"/><path d="m258.242188 126.910156c0-6.140625 3.125-11.582031 7.859374-14.828125-2.882812-1.972656-6.363281-3.136719-10.101562-3.136719-9.878906 0-17.964844 8.085938-17.964844 17.964844v12.511719c5.621094-2.207031 11.664063-3.417969 17.964844-3.417969.75 0 1.496094.019532 2.242188.050782zm0 0" fill="#855151"/><path d="m310.628906 195.804688c0-33.523438-24.457031-60.703126-54.628906-60.703126s-54.632812 27.179688-54.632812 60.703126c0 33.523437 24.460937 60.699218 54.632812 60.699218s54.628906-27.175781 54.628906-60.699218zm0 0" fill="#704444"/><path d="m232.382812 195.804688c0-27.539063 16.507813-50.777344 39.125-58.207032-4.917968-1.613281-10.117187-2.496094-15.507812-2.496094-30.171875 0-54.628906 27.179688-54.628906 60.703126 0 33.523437 24.457031 60.699218 54.628906 60.699218 5.390625 0 10.589844-.878906 15.507812-2.496094-22.617187-7.425781-39.125-30.667968-39.125-58.203124zm0 0" fill="#593636"/></svg>